# xmcd
#
# Track frame offsets:
#	150
#	15590
#	34776
#	51260
#	70470
#	86992
#	105412
#	118300
#	133910
#	146908
#	164389
#	177733
#	196121
#
# Disc length: 2864 seconds
#
# Revision: 0
# Processed by: cddbd v1.5.2PL0 Copyright (c) Steve Scherf et al.
# Submitted via: EasyCDDAExtractor 16.0.6.1
#
DISCID=c60b2e0d
DTITLE=Γλυκερία - Κάνε κουράγιο, Ελλάδα μου
DYEAR=2014
DGENRE=Ελαφρά
TTITLE0=Γλυκερία-Τσέρτος Μπάμπης - Κάνε κουράγιο Ελλάδα μου [Μιχ. Σουγιούλ-Μ. 
TTITLE0=Τραϊφόρος]
TTITLE1=Γλυκερία - Όλα ρημάδια [Μιχ. Σουγιούλ-Μ. Τραϊφόρος]
TTITLE2=Γλυκερία - Βρέχει, βρέχει [Μιχ. Σουγιούλ-Αλ. Σακελλάριος]
TTITLE3=Γλυκερία-Τσέρτος Μπάμπης - Βρε, πώς μπατιρίσαμε[Μ.Σουγιούλ-Α.Σακελλάρι
TTITLE3=ος/Χ.Γιαννακόπουλος]
TTITLE4=Γλυκερία - Ζεχρά [Μιχ. Σουγιούλ-Αιμ. Σαββίδης]
TTITLE5=Γλυκερία-Τσέρτος Μπάμπης - Άσ' τα τα μαλλάκια σου[Μ.Σουγιούλ-Α.Σακελλά
TTITLE5=ριος/Χ.Γιαννακόπουλος]
TTITLE6=Γλυκερία-Τσέρτος Μπάμπης - Για μάς κελαηδούν τα πουλιά [Μιχ. Σουγιούλ-
TTITLE6=Ν. Φατσέας]
TTITLE7=Τσέρτος Μπάμπης-Γλυκερία - Άρχισαν τα όργανα[Μ.Σουγιούλ-Α.Σακελλάριος/
TTITLE7=Χ.Γιαννακόπουλος]
TTITLE8=Γλυκερία - Άλα, άνοιξε κι άλλη μπουκάλα[Μ.Σουγιούλ-Α.Σακελλάριος/Χ.Για
TTITLE8=ννακόπουλος]
TTITLE9=Τσέρτος Μπάμπης - Ο παντρεμενάκιας [Μ. Σουγιούλ-Γ. Γιαννακόπουλος]
TTITLE10=Γλυκερία - Κάτι με τραβάει κοντά σου [Μιχ. Σουγιούλ-Μιχ. Γαϊτάνος]
TTITLE11=Γλυκερία-Τσέρτος Μπάμπης - Ο κόσμος έγινε για μάς[Μ.Σουγιούλ/Τ.Μωράκη
TTITLE11=ς-Γ.Γιαννακόπουλος]
TTITLE12=Γλυκερία - Ας ερχόσουν για λίγο [Μιχ. Σουγιούλ-Μ. Τραϊφόρος]
EXTD=
EXTT0=
EXTT1=
EXTT2=
EXTT3=
EXTT4=
EXTT5=
EXTT6=
EXTT7=
EXTT8=
EXTT9=
EXTT10=
EXTT11=
EXTT12=
PLAYORDER=
